<svg viewBox="0 0 1200 1200" xmlns:xlink="http://www.w3.org/1999/xlink" xmlns="http://www.w3.org/2000/svg"><defs><style>.cls-1{opacity:0.17;fill:url(#未命名的渐变_33);}.cls-12,.cls-2,.cls-3,.cls-4,.cls-5,.cls-6{opacity:0.3;}.cls-2{fill:url(#未命名的渐变_33-2);}.cls-3{fill:url(#未命名的渐变_33-3);}.cls-4{fill:url(#未命名的渐变_33-4);}.cls-5{fill:url(#未命名的渐变_162);}.cls-6{fill:url(#未命名的渐变_162-2);}.cls-7{fill:none;}.cls-8{fill:url(#未命名的渐变_69);}.cls-9{fill:#c4f2e2;}.cls-10{fill:#fff;}.cls-11{opacity:0.5;fill:url(#未命名的渐变_156);}.cls-12{fill:url(#未命名的渐变_33-5);}</style><linearGradient gradientUnits="userSpaceOnUse" y2="812.21" x2="600.5" y1="1110.71" x1="600.5" id="未命名的渐变_33"><stop stop-opacity="0" stop-color="#fff" offset="0"></stop><stop stop-color="#4be2ac" offset="0.77"></stop></linearGradient><linearGradient xlink:href="#未命名的渐变_33" y2="225.16" x2="936.96" y1="387.68" x1="936.96" id="未命名的渐变_33-2"></linearGradient><linearGradient xlink:href="#未命名的渐变_33" y2="430.79" x2="213.93" y1="593.31" x1="213.93" id="未命名的渐变_33-3"></linearGradient><linearGradient xlink:href="#未命名的渐变_33" y2="596.62" x2="1019.21" y1="692.81" x1="1019.21" id="未命名的渐变_33-4"></linearGradient><linearGradient gradientUnits="userSpaceOnUse" y2="361.14" x2="1111.26" y1="400.94" x1="1111.26" id="未命名的渐变_162"><stop stop-opacity="0.4" stop-color="#6de7bb" offset="0"></stop><stop stop-color="#55e2ac" offset="0.77"></stop></linearGradient><linearGradient xlink:href="#未命名的渐变_162" y2="228.48" x2="292.05" y1="294.81" x1="292.05" id="未命名的渐变_162-2"></linearGradient><linearGradient gradientUnits="userSpaceOnUse" y2="834.04" x2="602.73" y1="882.27" x1="602.73" id="未命名的渐变_69"><stop stop-opacity="0.02" stop-color="#009eaa" offset="0"></stop><stop stop-opacity="0.2" stop-color="#004c55" offset="0.77"></stop></linearGradient><linearGradient gradientUnits="userSpaceOnUse" y2="861.35" x2="591.8" y1="408.26" x1="591.8" id="未命名的渐变_156"><stop stop-opacity="0.62" stop-color="#6de7bb" offset="0"></stop><stop stop-color="#55e2ac" offset="0.77"></stop></linearGradient><linearGradient xlink:href="#未命名的渐变_33" y2="422.75" x2="619.46" y1="861.35" x1="619.46" id="未命名的渐变_33-5"></linearGradient></defs><g id="图层_1"><path d="M1199,1110.71C1177.69,944,917.9,812.21,600.5,812.21S23.31,944,2,1110.71Z" class="cls-1"></path><path d="M1002,387.68a58.51,58.51,0,1,0,0-117c-1.1,0-2.12.27-3.21.33a64.58,64.58,0,0,0-123.59,0c-1.09-.06-2.11-.33-3.21-.33a58.51,58.51,0,0,0,0,117Z" class="cls-2"></path><path d="M278.93,593.31a58.51,58.51,0,1,0,0-117c-1.1,0-2.12.26-3.21.32a64.58,64.58,0,0,0-123.59,0c-1.09-.06-2.11-.32-3.21-.32a58.51,58.51,0,1,0,0,117Z" class="cls-3"></path><path d="M1057.68,692.81a34.63,34.63,0,1,0,0-69.25c-.65,0-1.26.15-1.9.19a38.22,38.22,0,0,0-73.15,0c-.64,0-1.24-.19-1.89-.19a34.63,34.63,0,1,0,0,69.25Z" class="cls-4"></path><circle r="19.9" cy="381.04" cx="1111.26" class="cls-5"></circle><circle r="33.17" cy="261.64" cx="292.05" class="cls-6"></circle><path d="M759.92,885.79V856.65a27,27,0,0,0-.32-3.94v37A27,27,0,0,0,759.92,885.79Z" class="cls-7"></path><path d="M821.89,308.59v-42a39.33,39.33,0,0,0-.46-5.68v53.35A39.45,39.45,0,0,0,821.89,308.59Z" class="cls-7"></path><ellipse ry="24.12" rx="219.57" cy="858.16" cx="602.73" class="cls-8"></ellipse><path d="M536.93,406.67c-107.69,0-195,87.31-195,195A194.89,194.89,0,0,0,438.48,770L614.55,422.75A194.36,194.36,0,0,0,536.93,406.67Z" class="cls-9"></path><path d="M806.7,796.17l-84.78-84.78a194,194,0,0,0,33.79-109.72c0-107.69-87.3-195-195-195s-195,87.31-195,195,87.3,195,195,195a194.06,194.06,0,0,0,106.72-31.79l85.28,85.29a38.17,38.17,0,0,0,54,0h0A38.19,38.19,0,0,0,806.7,796.17Z" class="cls-10"></path><path d="M806.7,796.17,722.57,712a194.14,194.14,0,0,0,33.14-108.78c0-107.7-87.3-195-195-195s-195,87.3-195,195,87.3,195,195,195a194.08,194.08,0,0,0,107.67-32.41l84.33,84.33a38.17,38.17,0,0,0,54,0h0A38.19,38.19,0,0,0,806.7,796.17Z" class="cls-11"></path><circle r="195" cy="601.67" cx="533.76" class="cls-9"></circle><rect transform="translate(-321.23 689.4) rotate(-45)" rx="24.08" height="332.92" width="76.36" y="566" x="633.38" class="cls-9"></rect><path d="M789.26,796.17l-88.59-88.58a195.06,195.06,0,0,0-86.12-284.84L438.48,770a195.07,195.07,0,0,0,209-7.67l87.83,87.83a38.17,38.17,0,0,0,54,0h0A38.19,38.19,0,0,0,789.26,796.17Z" class="cls-12"></path><path d="M535.35,769.72c-90.91,0-164.88-74-164.88-164.88S444.44,440,535.35,440s164.87,74,164.87,164.87S626.26,769.72,535.35,769.72Zm0-320.24C449.68,449.48,380,519.17,380,604.84S449.68,760.2,535.35,760.2s155.36-69.69,155.36-155.36S621,449.48,535.35,449.48Z" class="cls-10"></path><path d="M479.2,567.43h0A12.23,12.23,0,0,1,470,552.11q9.53-32.37,39.24-43.71A80.61,80.61,0,0,1,539.42,503q33.42,0,53.12,20.3l6.26,7.46q8.66,13.43,9.26,31.33,0,34-39.4,54.91a139.65,139.65,0,0,0-15,8.61,17.3,17.3,0,0,0-6.45,8.5h0a61.59,61.59,0,0,0-3.45,19.62h0a10.26,10.26,0,0,1-10.25,10.13h-.7a11,11,0,0,1-11-11v-2.17q0-22.39,5.37-31.34,4.77-6.85,14-12.83,20.88-11.94,25.36-15.52,13.73-11.64,13.73-28.65,0-23.86-21.49-33.42a52.2,52.2,0,0,0-21.18-4.18q-25.38,0-37.89,19.48a49.45,49.45,0,0,0-5.86,13.45l-.29,1A12.25,12.25,0,0,1,479.2,567.43ZM534.34,706.3h-1.49a14.92,14.92,0,0,1-14.92-14.92h0a14.92,14.92,0,0,1,14.92-14.92h1.49a14.92,14.92,0,0,1,14.92,14.92h0A14.92,14.92,0,0,1,534.34,706.3Z" class="cls-10"></path></g></svg>