<?xml version="1.0" encoding="utf-8"?>
<svg xmlns="http://www.w3.org/2000/svg" viewBox="0 0 102 102" preserveAspectRatio="none"
>
    <g>
        <path
            d="M 1.7,51.1 C 1.7,46.5 5.8,43.7 9.9,43.7 C 12.3,43.7 14.5,44.5 16.3,45.3 C 16.3,45.3 16.6,45 16.6,45 C 14,42.4 12.5,40.4 12.5,37.8 C 12.5,34.5 15.2,32.2 19.4,32.2 C 27.4,32.2 36.1,39.7 38.5,41.9 C 39.4,42.7 38.8,43.7 37.6,42.9 C 36.5,42.3 33.4,40.8 30.7,40.8 C 28.7,40.8 27.4,41.5 27.4,43.2 C 27.4,45.3 30.1,46.5 32,47.9 C 33,48.5 32.7,49.3 31.5,49 C 30.7,48.9 27.3,47.4 24,47.4 C 21.4,47.4 18.9,48.2 18.9,51.2 C 18.9,54.3 21.4,55.1 24,55.1 C 27.3,55.1 30.7,53.6 31.5,53.5 C 32.7,53.2 33,54 32,54.6 C 30.1,56 27.4,57.2 27.4,59.3 C 27.4,60.9 28.7,61.7 30.7,61.7 C 33.4,61.7 36.5,60.2 37.6,59.6 C 38.8,58.8 39.4,59.9 38.5,60.6 C 36.1,62.8 27.4,70.3 19.4,70.3 C 15.2,70.3 12.5,68.1 12.5,64.7 C 12.5,62.1 14,60.1 16.6,57.5 C 16.6,57.5 16.3,57.2 16.3,57.2 C 14.5,58 12.3,58.8 9.9,58.8 C 5.8,58.8 1.7,56 1.7,51.2 C 1.7,51.2 1.7,51.1 1.7,51.1 Z"
            fill="[object Object]" operation="union" type="path"></path>
        <path
            d="M 11.9,17.5 C 11.9,16.8 12.3,16 13.2,15.1 C 15,13.4 16.4,13.4 17.5,14.6 C 18.6,15.7 30.2,28.6 31.3,29.9 C 31.9,30.8 30.9,31.8 30,31.3 C 28.4,30.2 15,21.2 13,19.8 C 12.2,19.2 11.9,18.5 11.9,17.6 C 11.9,17.6 11.9,17.5 11.9,17.5 Z"
            fill="[object Object]" operation="union" type="path"></path>
        <path
            d="M 11.9,84.3 C 11.9,83.7 12.3,82.9 13.2,82.3 C 15.2,80.9 28.5,71.9 30.1,70.8 C 31.1,70.3 32,71.3 31.4,72.2 C 30.3,73.5 18.7,86.4 17.7,87.5 C 16.5,88.7 15.1,88.7 13.3,87 C 12.5,86.2 11.9,85.2 11.9,84.5 C 11.9,84.5 11.9,84.3 11.9,84.3 Z"
            fill="[object Object]" operation="union" type="path"></path>
        <path
            d="M 51,1.5 C 55.7,1.5 58.4,5.6 58.4,9.7 C 58.4,12.1 57.6,14.3 56.8,16.2 C 56.8,16.2 57.1,16.5 57.1,16.5 C 59.7,13.8 61.7,12.4 64.4,12.4 C 67.7,12.4 69.9,15 69.9,19.2 C 69.9,27.3 62.4,36 60.3,38.4 C 59.5,39.3 58.4,38.7 59.2,37.5 C 59.9,36.4 61.3,33.3 61.3,30.6 C 61.3,28.6 60.7,27.3 59,27.3 C 56.8,27.3 55.7,30 54.2,31.9 C 53.7,32.9 52.9,32.6 53.1,31.4 C 53.3,30.6 54.7,27.2 54.7,23.9 C 54.7,21.2 53.9,18.7 50.9,18.7 C 47.9,18.7 47.1,21.2 47.1,23.9 C 47.1,27.2 48.5,30.6 48.7,31.4 C 48.9,32.6 48.1,32.9 47.6,31.9 C 46.2,30 45,27.3 42.9,27.3 C 41.3,27.3 40.5,28.6 40.5,30.6 C 40.5,33.3 41.9,36.4 42.6,37.5 C 43.4,38.7 42.3,39.3 41.5,38.4 C 39.4,36 31.9,27.3 31.9,19.2 C 31.9,15 34.2,12.4 37.5,12.4 C 40.1,12.4 42.1,13.8 44.7,16.5 C 44.7,16.5 45,16.2 45,16.2 C 44.2,14.3 43.4,12.1 43.4,9.7 C 43.4,5.6 46.2,1.5 50.9,1.5 C 50.9,1.5 51,1.5 51,1.5 Z"
            fill="[object Object]" operation="union" type="path"></path>
        <path
            d="M 50.9,100.5 C 46.3,100.5 43.5,96.4 43.5,92.3 C 43.5,89.9 44.3,87.6 45.1,85.8 C 45.1,85.8 44.8,85.5 44.8,85.5 C 42.2,88.2 40.2,89.6 37.6,89.6 C 34.3,89.6 32,87 32,82.7 C 32,74.7 39.6,65.9 41.7,63.6 C 42.5,62.6 43.5,63.3 42.7,64.5 C 42.1,65.5 40.6,68.7 40.6,71.4 C 40.6,73.3 41.4,74.7 43,74.7 C 45.1,74.7 46.3,72 47.7,70 C 48.3,69.1 49.1,69.4 48.8,70.6 C 48.7,71.4 47.2,74.8 47.2,78.1 C 47.2,80.8 48,83.3 51,83.3 C 54.1,83.3 54.9,80.8 54.9,78.1 C 54.9,74.8 53.4,71.4 53.3,70.6 C 53,69.4 53.8,69.1 54.3,70 C 55.8,72 57,74.7 59.1,74.7 C 60.8,74.7 61.5,73.3 61.5,71.4 C 61.5,68.7 60,65.5 59.3,64.5 C 58.6,63.3 59.6,62.6 60.4,63.6 C 62.5,65.9 70,74.7 70,82.7 C 70,87 67.8,89.6 64.5,89.6 C 61.9,89.6 59.9,88.2 57.2,85.5 C 57.2,85.5 57,85.8 57,85.8 C 57.8,87.6 58.6,89.9 58.6,92.3 C 58.6,96.4 55.8,100.5 51,100.5 C 51,100.5 50.9,100.5 50.9,100.5 Z"
            fill="[object Object]" operation="union" type="path"></path>
        <path
            d="M 50.9,57.9 C 47.2,57.9 44.2,54.8 44.2,51.1 C 44.2,47.3 47.2,44.2 51,44.2 C 54.6,44.2 57.6,47.3 57.6,51.1 C 57.6,54.8 54.6,57.9 51,57.9 C 51,57.9 50.9,57.9 50.9,57.9 Z"
            fill="[object Object]" operation="union" type="path"></path>
        <path
            d="M 100.2,51.2 C 100.2,55.9 96.1,58.7 92.1,58.7 C 89.7,58.7 87.4,57.9 85.6,57.1 C 85.6,57.1 85.3,57.3 85.3,57.3 C 88,60 89.4,62 89.4,64.6 C 89.4,67.9 86.8,70.2 82.6,70.2 C 74.5,70.2 65.8,62.6 63.4,60.5 C 62.5,59.7 63.2,58.7 64.4,59.5 C 65.4,60.1 68.6,61.6 71.2,61.6 C 73.2,61.6 74.5,60.8 74.5,59.2 C 74.5,57.1 71.9,55.9 69.9,54.4 C 69,53.9 69.2,53.1 70.4,53.4 C 71.2,53.5 74.6,55 77.9,55 C 80.6,55 83.1,54.2 83.1,51.1 C 83.1,48.1 80.6,47.3 77.9,47.3 C 74.6,47.3 71.2,48.7 70.4,48.9 C 69.2,49.1 69,48.3 69.9,47.8 C 71.9,46.4 74.5,45.2 74.5,43 C 74.5,41.3 73.2,40.7 71.2,40.7 C 68.6,40.7 65.4,42.1 64.4,42.8 C 63.2,43.6 62.5,42.5 63.4,41.7 C 65.8,39.6 74.5,32.1 82.6,32.1 C 86.8,32.1 89.4,34.3 89.4,37.6 C 89.4,40.3 88,42.3 85.3,44.9 C 85.3,44.9 85.6,45.2 85.6,45.2 C 87.4,44.4 89.7,43.6 92.1,43.6 C 96.1,43.6 100.2,46.4 100.2,51.1 C 100.2,51.1 100.2,51.2 100.2,51.2 Z"
            fill="[object Object]" operation="union" type="path"></path>
        <path
            d="M 90.3,17.7 C 90.3,18.4 89.9,19 89,19.6 C 87,21 73.7,30.1 72.1,31.1 C 71.2,31.7 70.2,30.7 70.8,29.8 C 71.9,28.4 83.5,15.5 84.5,14.5 C 85.7,13.3 87.1,13.3 88.9,15 C 89.8,15.9 90.3,16.7 90.3,17.6 C 90.3,17.6 90.3,17.7 90.3,17.7 Z"
            fill="[object Object]" operation="union" type="path"></path>
        <path
            d="M 90.3,84.5 C 90.3,85.1 89.8,86 88.9,86.8 C 87.1,88.6 85.7,88.6 84.5,87.4 C 83.5,86.3 71.9,73.4 70.8,72.1 C 70.2,71.2 71.2,70.2 72.1,70.7 C 73.7,71.8 87,80.8 89,82.2 C 89.9,82.8 90.3,83.5 90.3,84.3 C 90.3,84.3 90.3,84.5 90.3,84.5 Z"
            fill="[object Object]" operation="union" type="path"></path>
    </g>
</svg>